<?xml version="1.0" encoding="utf-8"?>
<!-- Generator: Adobe Illustrator 24.0.1, SVG Export Plug-In . SVG Version: 6.00 Build 0)  -->
<svg version="1.1" id="Capa_1" xmlns="http://www.w3.org/2000/svg" xmlns:xlink="http://www.w3.org/1999/xlink" x="0px" y="0px"
	 viewBox="0 0 294.8 294.8" style="enable-background:new 0 0 294.8 294.8;" xml:space="preserve">
<style type="text/css">
	.st0{fill:#FFFFFF;}
</style>
<g>
	<path class="st0" d="M54.6,63.4h185.6c4.9,0,8.8-3.9,8.8-8.8s-3.9-8.8-8.8-8.8H54.6c-4.9,0-8.8,3.9-8.8,8.8S49.8,63.4,54.6,63.4z"
		/>
	<path class="st0" d="M54.6,156.2h185.6c4.9,0,8.8-3.9,8.8-8.8s-3.9-8.8-8.8-8.8H54.6c-4.9,0-8.8,3.9-8.8,8.8S49.8,156.2,54.6,156.2
		z"/>
	<path class="st0" d="M249,240.2c0-4.9-3.9-8.8-8.8-8.8H54.6c-4.9,0-8.8,3.9-8.8,8.8c0,4.9,3.9,8.8,8.8,8.8h185.6
		C245.1,249,249,245.1,249,240.2z"/>
</g>
</svg>
